<?xml version="1.0" encoding="UTF-8" standalone="no"?>
<!-- Created with Inkscape (http://www.inkscape.org/) -->

<svg
   xmlns:dc="http://purl.org/dc/elements/1.1/"
   xmlns:cc="http://creativecommons.org/ns#"
   xmlns:rdf="http://www.w3.org/1999/02/22-rdf-syntax-ns#"
   xmlns:svg="http://www.w3.org/2000/svg"
   xmlns="http://www.w3.org/2000/svg"
   xmlns:sodipodi="http://sodipodi.sourceforge.net/DTD/sodipodi-0.dtd"
   xmlns:inkscape="http://www.inkscape.org/namespaces/inkscape"
   width="80.615234mm"
   height="10.242269mm"
   viewBox="0 0 80.615233 10.242268"
   version="1.1"
   id="svg1041"
   inkscape:version="0.92.3 (2405546, 2018-03-11)"
   sodipodi:docname="contact-email.svg">
  <defs
     id="defs1035" />
  <sodipodi:namedview
     id="base"
     pagecolor="#2b1c7b"
     bordercolor="#666666"
     borderopacity="1.0"
     inkscape:pageopacity="1"
     inkscape:pageshadow="2"
     inkscape:zoom="0.98994949"
     inkscape:cx="602.52343"
     inkscape:cy="264.0004"
     inkscape:document-units="mm"
     inkscape:current-layer="layer1"
     showgrid="false"
     fit-margin-top="0"
     fit-margin-left="0"
     fit-margin-right="0"
     fit-margin-bottom="0"
     inkscape:window-width="3440"
     inkscape:window-height="1373"
     inkscape:window-x="-9"
     inkscape:window-y="-9"
     inkscape:window-maximized="1" />
  <metadata
     id="metadata1038">
    <rdf:RDF>
      <cc:Work
         rdf:about="">
        <dc:format>image/svg+xml</dc:format>
        <dc:type
           rdf:resource="http://purl.org/dc/dcmitype/StillImage" />
        <dc:title></dc:title>
      </cc:Work>
    </rdf:RDF>
  </metadata>
  <g
     inkscape:label="Layer 1"
     inkscape:groupmode="layer"
     id="layer1"
     transform="translate(250.27052,-179.31727)">
    <g
       style="font-style:normal;font-weight:normal;font-size:10.58333302px;line-height:1.25;font-family:sans-serif;text-align:end;letter-spacing:0px;word-spacing:0px;text-anchor:end;fill:#000000;fill-opacity:1;stroke:none;stroke-width:0.26458332"
       id="text829">
      <path
         d="m -246.04856,182.44886 v -3.13159 h 0.95085 v 8.04085 h -0.95085 v -0.86816 q -0.29972,0.51676 -0.75964,0.76998 -0.45475,0.24805 -1.09554,0.24805 -1.04903,0 -1.71049,-0.83716 -0.65629,-0.83716 -0.65629,-2.20142 0,-1.36426 0.65629,-2.20141 0.66146,-0.83716 1.71049,-0.83716 0.64079,0 1.09554,0.25321 0.45992,0.24805 0.75964,0.76481 z m -3.24011,2.02055 q 0,1.04903 0.42892,1.64848 0.43408,0.59428 1.18855,0.59428 0.75448,0 1.18856,-0.59428 0.43408,-0.59945 0.43408,-1.64848 0,-1.04903 -0.43408,-1.64331 -0.43408,-0.59945 -1.18856,-0.59945 -0.75447,0 -1.18855,0.59945 -0.42892,0.59428 -0.42892,1.64331 z"
         style="stroke-width:0.26458332"
         id="path831"
         inkscape:connector-curvature="0" />
      <path
         d="m -238.18857,184.22653 v 0.46509 h -4.37183 q 0.062,0.98185 0.58911,1.49862 0.53227,0.51159 1.47795,0.51159 0.54777,0 1.05937,-0.13436 0.51676,-0.13435 1.02319,-0.40307 v 0.89917 q -0.5116,0.21704 -1.04903,0.33073 -0.53744,0.11369 -1.09037,0.11369 -1.38493,0 -2.19625,-0.80616 -0.80615,-0.80615 -0.80615,-2.18074 0,-1.4211 0.76481,-2.25309 0.76998,-0.83716 2.07222,-0.83716 1.16789,0 1.84485,0.75447 0.68213,0.74931 0.68213,2.04122 z m -0.95085,-0.27905 q -0.0103,-0.78031 -0.43925,-1.2454 -0.42374,-0.46509 -1.12654,-0.46509 -0.79582,0 -1.27641,0.44958 -0.47542,0.44959 -0.54777,1.26608 z"
         style="stroke-width:0.26458332"
         id="path833"
         inkscape:connector-curvature="0" />
      <path
         d="m -237.31007,181.57036 h 1.00769 l 1.80867,4.85759 1.80868,-4.85759 h 1.00769 l -2.17041,5.78776 h -1.29191 z"
         style="stroke-width:0.26458332"
         id="path835"
         inkscape:connector-curvature="0" />
      <path
         d="m -227.42437,184.5831 q 0,0.73897 0.3669,1.16272 0.3669,0.41858 1.00769,0.41858 0.63562,0 0.99736,-0.42375 0.3669,-0.42375 0.3669,-1.15755 0,-0.72347 -0.37207,-1.14722 -0.37207,-0.42891 -1.00252,-0.42891 -0.62529,0 -0.99736,0.42375 -0.3669,0.42374 -0.3669,1.15238 z m 2.81636,1.54512 q -0.31005,0.39791 -0.71313,0.58912 -0.39791,0.18603 -0.93018,0.18603 -0.88883,0 -1.44694,-0.64079 -0.55293,-0.64595 -0.55293,-1.67948 0,-1.03353 0.5581,-1.67948 0.55811,-0.64596 1.44177,-0.64596 0.53227,0 0.93535,0.19637 0.40307,0.1912 0.70796,0.58394 v -0.67696 h 0.73898 v 3.80339 q 0.75447,-0.11369 1.17822,-0.6873 0.42891,-0.57877 0.42891,-1.49345 0,-0.55293 -0.16536,-1.03869 -0.1602,-0.48576 -0.49093,-0.89917 -0.53743,-0.67696 -1.31258,-1.03353 -0.76998,-0.36174 -1.67948,-0.36174 -0.63562,0 -1.21956,0.17054 -0.58395,0.16536 -1.08004,0.49609 -0.81132,0.5271 -1.27124,1.38493 -0.45476,0.85266 -0.45476,1.85001 0,0.82166 0.29456,1.53996 0.29972,0.7183 0.863,1.26607 0.5426,0.53744 1.25573,0.81649 0.71314,0.28422 1.52446,0.28422 0.66662,0 1.30741,-0.22737 0.64596,-0.22221 1.18339,-0.64079 l 0.46509,0.57361 q -0.64595,0.50126 -1.41077,0.76481 -0.75964,0.26871 -1.54512,0.26871 -0.95602,0 -1.80351,-0.34106 -0.84749,-0.3359 -1.50895,-0.98185 -0.66146,-0.64596 -1.00769,-1.49345 -0.34623,-0.85266 -0.34623,-1.82935 0,-0.94051 0.3514,-1.79317 0.3514,-0.85266 1.00252,-1.49862 0.66663,-0.65629 1.53996,-1.00252 0.87333,-0.3514 1.85001,-0.3514 1.09554,0 2.03089,0.44959 0.94051,0.44958 1.57613,1.27641 0.38757,0.50642 0.58911,1.1007 0.20671,0.59428 0.20671,1.2299 0,1.35909 -0.82166,2.14457 -0.82166,0.78549 -2.2686,0.81649 z"
         style="stroke-width:0.26458332"
         id="path837"
         inkscape:connector-curvature="0" />
      <path
         d="m -217.3733,187.89556 q -0.40308,1.03353 -0.78549,1.34875 -0.3824,0.31523 -1.02319,0.31523 h -0.75964 v -0.79582 h 0.5581 q 0.39274,0 0.60978,-0.18603 0.21705,-0.18604 0.4806,-0.8785 l 0.17053,-0.43408 -2.34094,-5.69475 h 1.00769 l 1.80867,4.52686 1.80868,-4.52686 h 1.00769 z"
         style="stroke-width:0.26458332"
         id="path839"
         inkscape:connector-curvature="0" />
      <path
         d="m -211.27548,182.23699 q -0.76482,0 -1.20923,0.59945 -0.44442,0.59428 -0.44442,1.63297 0,1.0387 0.43925,1.63814 0.44442,0.59428 1.2144,0.59428 0.75964,0 1.20406,-0.59944 0.44441,-0.59945 0.44441,-1.63298 0,-1.02836 -0.44441,-1.62781 -0.44442,-0.60461 -1.20406,-0.60461 z m 0,-0.80615 q 1.24023,0 1.9482,0.80615 0.70796,0.80615 0.70796,2.23242 0,1.4211 -0.70796,2.23242 -0.70797,0.80616 -1.9482,0.80616 -1.24541,0 -1.95337,-0.80616 -0.7028,-0.81132 -0.7028,-2.23242 0,-1.42627 0.7028,-2.23242 0.70796,-0.80615 1.95337,-0.80615 z"
         style="stroke-width:0.26458332"
         id="path841"
         inkscape:connector-curvature="0" />
      <path
         d="m -202.23728,183.8648 v 3.49332 h -0.95085 v -3.46232 q 0,-0.82165 -0.32039,-1.2299 -0.32039,-0.40824 -0.96118,-0.40824 -0.76998,0 -1.2144,0.49093 -0.44441,0.49092 -0.44441,1.33842 v 3.27111 h -0.95602 v -8.04085 h 0.95602 v 3.15226 q 0.34106,-0.52193 0.80098,-0.78031 0.46509,-0.25838 1.0697,-0.25838 0.99736,0 1.50895,0.62011 0.5116,0.61495 0.5116,1.81385 z"
         style="stroke-width:0.26458332"
         id="path843"
         inkscape:connector-curvature="0" />
      <path
         d="m -198.08766,182.23699 q -0.76481,0 -1.20923,0.59945 -0.44442,0.59428 -0.44442,1.63297 0,1.0387 0.43925,1.63814 0.44442,0.59428 1.2144,0.59428 0.75964,0 1.20406,-0.59944 0.44442,-0.59945 0.44442,-1.63298 0,-1.02836 -0.44442,-1.62781 -0.44442,-0.60461 -1.20406,-0.60461 z m 0,-0.80615 q 1.24023,0 1.9482,0.80615 0.70797,0.80615 0.70797,2.23242 0,1.4211 -0.70797,2.23242 -0.70797,0.80616 -1.9482,0.80616 -1.2454,0 -1.95337,-0.80616 -0.7028,-0.81132 -0.7028,-2.23242 0,-1.42627 0.7028,-2.23242 0.70797,-0.80615 1.95337,-0.80615 z"
         style="stroke-width:0.26458332"
         id="path845"
         inkscape:connector-curvature="0" />
      <path
         d="m -189.04945,183.8648 v 3.49332 h -0.95085 v -3.46232 q 0,-0.82165 -0.32039,-1.2299 -0.3204,-0.40824 -0.96118,-0.40824 -0.76998,0 -1.2144,0.49093 -0.44442,0.49092 -0.44442,1.33842 v 3.27111 h -0.95601 v -8.04085 h 0.95601 v 3.15226 q 0.34107,-0.52193 0.80099,-0.78031 0.46509,-0.25838 1.0697,-0.25838 0.99736,0 1.50895,0.62011 0.5116,0.61495 0.5116,1.81385 z"
         style="stroke-width:0.26458332"
         id="path847"
         inkscape:connector-curvature="0" />
      <path
         d="m -184.89984,182.23699 q -0.76481,0 -1.20922,0.59945 -0.44442,0.59428 -0.44442,1.63297 0,1.0387 0.43925,1.63814 0.44441,0.59428 1.21439,0.59428 0.75965,0 1.20406,-0.59944 0.44442,-0.59945 0.44442,-1.63298 0,-1.02836 -0.44442,-1.62781 -0.44441,-0.60461 -1.20406,-0.60461 z m 0,-0.80615 q 1.24024,0 1.94821,0.80615 0.70796,0.80615 0.70796,2.23242 0,1.4211 -0.70796,2.23242 -0.70797,0.80616 -1.94821,0.80616 -1.2454,0 -1.95337,-0.80616 -0.70279,-0.81132 -0.70279,-2.23242 0,-1.42627 0.70279,-2.23242 0.70797,-0.80615 1.95337,-0.80615 z"
         style="stroke-width:0.26458332"
         id="path849"
         inkscape:connector-curvature="0" />
      <path
         d="m -180.72438,186.04554 h 1.09037 v 1.31258 h -1.09037 z"
         style="stroke-width:0.26458332"
         id="path851"
         inkscape:connector-curvature="0" />
      <path
         d="m -177.48943,181.57036 h 0.95084 v 5.78776 h -0.95084 z m 0,-2.25309 h 0.95084 v 1.20406 h -0.95084 z"
         style="stroke-width:0.26458332"
         id="path853"
         inkscape:connector-curvature="0" />
      <path
         d="m -172.31146,182.23699 q -0.76481,0 -1.20923,0.59945 -0.44441,0.59428 -0.44441,1.63297 0,1.0387 0.43925,1.63814 0.44441,0.59428 1.21439,0.59428 0.75965,0 1.20406,-0.59944 0.44442,-0.59945 0.44442,-1.63298 0,-1.02836 -0.44442,-1.62781 -0.44441,-0.60461 -1.20406,-0.60461 z m 0,-0.80615 q 1.24024,0 1.9482,0.80615 0.70797,0.80615 0.70797,2.23242 0,1.4211 -0.70797,2.23242 -0.70796,0.80616 -1.9482,0.80616 -1.2454,0 -1.95337,-0.80616 -0.7028,-0.81132 -0.7028,-2.23242 0,-1.42627 0.7028,-2.23242 0.70797,-0.80615 1.95337,-0.80615 z"
         style="stroke-width:0.26458332"
         id="path855"
         inkscape:connector-curvature="0" />
    </g>
  </g>
</svg>
